<?xml version="1.0" encoding="utf-8"?>
<!-- Generator: Adobe Illustrator 19.0.0, SVG Export Plug-In . SVG Version: 6.00 Build 0)  -->
<svg version="1.1" xmlns="http://www.w3.org/2000/svg" xmlns:xlink="http://www.w3.org/1999/xlink" x="0px" y="0px"
	 viewBox="0 0 283.5 283.5" style="enable-background:new 0 0 283.5 283.5;" xml:space="preserve">
<style type="text/css">
	.st0{fill:none;stroke:#66847F;stroke-width:7;stroke-miterlimit:10;}
	.st1{display:none;}
	.st2{display:inline;fill:#FFFFFF;}
	.st3{display:inline;}
	.st4{fill:#FFFFFF;}
	.st5{display:inline;fill:none;stroke:#FFFFFF;stroke-width:5;stroke-linecap:round;stroke-miterlimit:10;}
	.st6{fill:#66847F;}
</style>
<g id="Disque">
	<circle id="XMLID_1_" class="st0" cx="141.1" cy="140.2" r="120.2"/>
</g>
<g id="Galets" class="st1">
	<path id="XMLID_9_" class="st2" d="M164.2,142.6c17.1-3.9,28.7-11.6,28.7-20.5c0-9.4-13.1-17.6-32-21.2c9.6-3,15.8-7.8,15.8-13.3
		c0-9-17-16.3-37.9-16.3c-20.9,0-37.9,7.3-37.9,16.3c0,5.5,6.3,10.4,16,13.3c-18.7,3.6-31.7,11.7-31.7,21.1c0,9.1,12.2,17,30,20.8
		c-26.6,4.4-45.5,15.5-45.5,28.5c0,16.8,31.7,30.5,70.9,30.5c39.1,0,70.9-13.7,70.9-30.5C211.6,158.1,191.8,146.8,164.2,142.6z
		 M140.7,78.1c8.9-2.4,23.1-3.3,25.2,1c4.1,8.2-21.1,7.2-22.4,6.3c-1.7-0.3-5.4-1.2-6.6-3.3C136.9,82.2,135,79.7,140.7,78.1z
		 M143.3,106.1c14.4-1.3,36.3,1.2,38.4,8.3c4,13.6-34.3,5.4-36,3.7c-2.5-0.8-8-3.3-9.3-6.8C136.4,111.3,134.3,107,143.3,106.1z
		 M190.5,169.6c-5.2,0-18.9-6.3-27.9-5.7c-8.9,0.7-29.2,1.3-26.4-6.5c0,0,4.2-8.3,20.1-7.8c15.9,0.4,38.1,6.5,41.2,13.7
		C200.5,170.5,195.7,169.6,190.5,169.6z"/>
</g>
<g id="YinYan" class="st1">
	<g id="XMLID_2_" class="st3">
		<path class="st4" d="M151.6,144.4c-71.6-24.2-19.9-71.9,7.2-80.3c-17.5-1.2-79.3,24.2-79.3,73.5c0,61.6,53.5,70.2,68.3,71.4
			c0.2,0,0.4,0,0.6,0c2.1,0.2,3.2,0.2,3.2,0.2c19.4,0,35.1-14.5,35.1-32.4S170.2,149,151.6,144.4z M158.8,188.7
			c-8.2,0-14.8-6.1-14.8-13.7c0-7.5,6.6-13.7,14.8-13.7c8.2,0,14.8,6.1,14.8,13.7C173.6,182.6,166.8,188.7,158.8,188.7z"/>
		<circle id="XMLID_3_" class="st4" cx="161" cy="102.8" r="13.7"/>
	</g>
</g>
<g id="Yoga" class="st1">
	<g id="XMLID_7_" class="st3">
		<path id="XMLID_17_" class="st4" d="M164.2,194c-16.9,3.8-25.4,9.4-25.4,10.7c0-1.3-8.6-7-25.4-10.7c-15.6-2-16.4,7.4-16.4,7.4
			c3.5,15,41.8,17.2,41.8,17.2s38.3-2.2,41.8-17.2C180.6,201.4,179.9,192,164.2,194z"/>
		<path id="XMLID_21_" class="st4" d="M121.6,146.4c2.6,6-1.1,41.4-1.1,41.4c7.7,0.4,18.3,6.2,18.3,6.2s10.6-5.9,18.3-6.2
			c0,0-3.7-35.4-1.1-41.4c0,0,19.2-37.1,20-40.4c0,0,5-10.7-3.2-16.9c-5.6-4.2-33.5-24.7-32.4-33.9c0.1-0.9-0.8-0.3-1.7-0.4
			c-0.9,0.1-1.8-0.5-1.7,0.4c0.2,2.1-1,4.7-3.1,7.6c-7.3,10-25,23-29.3,26.3c-8.2,6.2-3.2,16.9-3.2,16.9
			C102.4,109.4,121.6,146.4,121.6,146.4z M110.2,98.9c0.1-2.4,1.3-4.6,3.2-6.1l25.3-23.3l25.3,23.3c1.9,1.5,3.1,3.7,3.2,6.1
			c0.1,1.6,0,3.3-0.5,4.3c-1.1,2.1-17.2,26.1-17.2,26.1h-11h-11c0,0-16.1-24-17.2-26.1C110.2,102.2,110.1,100.5,110.2,98.9z"/>
		<ellipse id="XMLID_22_" class="st4" cx="138.8" cy="102.6" rx="15.4" ry="18"/>
	</g>
</g>
<g id="Bougie" class="st1">
	<g id="XMLID_12_" class="st3">
		<path id="XMLID_15_" class="st4" d="M197.8,149.6c-3.9,13.8-27.4,24.4-55.8,24.4c-28.9,0-52.7-10.9-56-25.1
			c-6.1,6-9.7,13-9.7,20.6c0,21.7,29.2,39.2,65.3,39.2c36.1,0,65.3-17.6,65.3-39.2C206.8,162.3,203.5,155.5,197.8,149.6z"/>
		<path id="XMLID_14_" class="st4" d="M141.8,141.5c-2,0-3.7,7.7-3.7,17.2h7.4C145.5,149.2,143.8,141.5,141.8,141.5z"/>
		<path id="XMLID_13_" class="st4" d="M139.8,77.2c5.7,3.3,15.6,25.8,15.6,34.8c0,1.8,1.1,21.3-7.8,23.9c0,0-3.3-18-6.1-20.9
			c0,0-2.6,19.6-4.9,20.9c-2.3,1.2-10.5-5.7-10.3-20.4c0.2-14.7,4.3-18.6,7.3-23.3C136.6,87.4,139.8,77.2,139.8,77.2z"/>
	</g>
</g>
<g id="Goutte" class="st1">
	<path id="XMLID_24_" class="st5" d="M61.4,166.1c0,17.6,33.6,31.8,75.2,31.8"/>
	<path id="XMLID_23_" class="st5" d="M213.7,166.1c0,17.6-33.6,31.8-75.2,31.8"/>
	<path id="XMLID_18_" class="st2" d="M180.1,160c-0.4-5.2-16.8-6.5-24.1-10.3c-7.1-3.8-13-8.4-18.9-17.7c2.9-0.3,5.1-2.6,5.1-5.5
		c0-3.1-2.5-5.6-5.6-5.6s-5.6,2.5-5.6,5.6c0,2.9,2.2,5.3,5.1,5.5c-5.9,9.3-11.8,13.9-18.9,17.7c-7.3,3.9-23.7,5.2-24.1,10.3
		s9.5,22,43.5,22S180.5,165.1,180.1,160z"/>
	<circle id="XMLID_16_" class="st2" cx="136.6" cy="99.1" r="9.2"/>
</g>
<g id="Bambou" class="st1">
	<g id="XMLID_33_" class="st3">
		<path id="XMLID_38_" class="st4" d="M131.1,113.7h-23.4c4.4-14.9,4.4-29.7,0-44.6h23.4C126.1,84,126.1,98.9,131.1,113.7z"/>
		<path id="XMLID_37_" class="st4" d="M131.1,164.9h-23.4c4.4-14.9,4.4-29.7,0-44.6h23.4C126.1,135.1,126.1,150,131.1,164.9z"/>
		<path id="XMLID_36_" class="st4" d="M131.1,215.9h-23.4c4.4-14.9,4.4-29.7,0-44.6h23.4C126.1,186.1,126.1,201,131.1,215.9z"/>
		<path id="XMLID_35_" class="st4" d="M174.2,215.9h-23.4c4.4-14.9,4.4-29.7,0-44.6h23.4C169.2,186.1,169.2,201,174.2,215.9z"/>
		<path id="XMLID_34_" class="st4" d="M174.2,164.9h-23.4c4.4-14.9,4.4-29.7,0-44.6h23.4C169.2,135.1,169.2,150,174.2,164.9z"/>
	</g>
	<g id="XMLID_29_" class="st3">
		<path id="XMLID_32_" class="st4" d="M196.3,158.4c0.1-0.1,0.2-0.1,0.3-0.2c0,0,0.1-0.1,0.1-0.1c5.7-4.3,19.4-21.9,21.4-24.6
			l0.3-0.3c0,0-0.1,0-0.2,0.1c0.1-0.1,0.1-0.2,0.1-0.2l-0.3,0.3c-3.3,1.5-27.6,12.8-29.9,16.6c0,0,0,0,0,0c-2.1,2.4-2.5,5.7-0.7,7.9
			C189.3,160.4,193.2,160.6,196.3,158.4C196.2,158.4,196.2,158.4,196.3,158.4z"/>
		<path id="XMLID_31_" class="st4" d="M192.4,172.3c0.1,0,0.2,0,0.3,0c0,0,0.1,0,0.1,0c5.4,0,21.7-4.4,24.1-5l0.3,0c0,0-0.1,0-0.2,0
			c0.1,0,0.2,0,0.2,0l-0.3,0c-2.7-0.6-22.4-4.9-25.6-3.7c0,0,0,0,0,0c-2.4,0.5-4.1,2.3-4,4.4C187.3,170.4,189.5,172.2,192.4,172.3
			C192.4,172.3,192.4,172.3,192.4,172.3z"/>
		<path id="XMLID_30_" class="st4" d="M185.1,153c0-0.1,0-0.2,0.1-0.3c0,0,0-0.1,0-0.1c0.8-5.3-1-22.1-1.3-24.6l0-0.3
			c0,0,0,0.1-0.1,0.1c0-0.1,0-0.2,0-0.2l0,0.3c-1,2.6-8.2,21.4-7.5,24.7c0,0,0,0,0,0c0.2,2.4,1.7,4.4,3.8,4.7
			C182.4,157.7,184.6,155.8,185.1,153C185.1,153,185.1,153,185.1,153z"/>
	</g>
	<g id="XMLID_25_" class="st3">
		<path id="XMLID_28_" class="st4" d="M90.1,104.3c-0.1-0.1-0.2-0.2-0.3-0.2c0,0-0.1,0-0.1-0.1c-6.6-3.9-30-10.4-33.5-11.4l-0.4-0.2
			c0,0,0.1,0.1,0.2,0.2c-0.1,0-0.2-0.1-0.2-0.1l0.4,0.2c2.9,2.7,24.2,22.4,29,23.2c0,0,0,0,0.1,0c3.3,1.1,6.7,0.1,8.2-2.5
			c1.6-3,0.2-6.9-3.2-9C90.2,104.4,90.1,104.3,90.1,104.3z"/>
		<path id="XMLID_27_" class="st4" d="M105.6,102.5c0-0.1-0.1-0.2-0.1-0.3c0,0,0-0.1,0-0.1c-2.2-5.4-13.3-20-15-22.1l-0.1-0.3
			c0,0,0,0.1,0,0.2c-0.1-0.1-0.1-0.1-0.1-0.1l0.1,0.3c0.5,2.9,4.3,24.6,6.9,27.2c0,0,0,0,0,0c1.5,2.2,4,3.2,6.1,2.2
			C105.8,108.4,106.7,105.4,105.6,102.5C105.7,102.5,105.6,102.5,105.6,102.5z"/>
		<path id="XMLID_26_" class="st4" d="M89.2,117.8c-0.1,0-0.2,0-0.3,0.1c0,0-0.1,0-0.1,0c-5.7,1.4-21.8,10.2-24.1,11.5l-0.3,0.1
			c0,0,0.1,0,0.2,0c-0.1,0-0.1,0.1-0.1,0.1l0.3-0.1c3-0.1,24.9-0.6,27.9-2.7c0,0,0,0,0,0c2.4-1.1,3.7-3.5,3.1-5.7
			C95.1,118.5,92.3,117.1,89.2,117.8C89.3,117.7,89.3,117.8,89.2,117.8z"/>
	</g>
</g>
<g id="Lotus">
	<g id="XMLID_49_">
		<path id="XMLID_50_" class="st6" d="M145.2,86.6L145.2,86.6c0,0-47.2,39.6,0,92.8v0C192.5,126.2,145.2,86.6,145.2,86.6z"/>
		<path id="XMLID_51_" class="st6" d="M149.2,184.1c60.1-20.7,52.9-75.3,52.9-75.3c-11.3-5.4-30.3,8.8-30.3,8.8
			C180.5,160.2,149.2,184.1,149.2,184.1z"/>
		<path id="XMLID_52_" class="st6" d="M202.2,145.9c-16.2,40.4-55.5,43-55.5,43c61.6,15.8,85.7-33.7,85.7-33.7
			C225.9,144.5,202.2,145.9,202.2,145.9z"/>
		<path id="XMLID_53_" class="st6" d="M141.3,184.1c0,0-31.3-23.9-22.6-66.5c0,0-19-14.2-30.3-8.8
			C88.3,108.8,81.1,163.4,141.3,184.1z"/>
		<path id="XMLID_54_" class="st6" d="M88.3,145.9c0,0-23.7-1.4-30.2,9.3c0,0,24.1,49.5,85.7,33.7
			C143.8,188.9,104.5,186.3,88.3,145.9z"/>
	</g>
</g>
</svg>
