<?xml version="1.0" encoding="utf-8"?>
<!-- Generator: Adobe Illustrator 19.0.0, SVG Export Plug-In . SVG Version: 6.00 Build 0)  -->
<svg version="1.1" id="Calque_1" xmlns="http://www.w3.org/2000/svg" xmlns:xlink="http://www.w3.org/1999/xlink" x="0px" y="0px"
	 viewBox="0 0 360.7 166" style="enable-background:new 0 0 360.7 166;" xml:space="preserve">
<style type="text/css">
	.st0{fill:#4B5C4A;}
</style>
<path id="XMLID_55_" class="st0" d="M181.7,41.1h-2.8c-2.2,0.2-8.4,1.2-10.4,7.5c0,0-0.8,5.2,0,6.2l0.2,0.9l-0.5-0.3
	c0,0-0.8,0.5-0.5,0.8c0.3,0.3-0.1,6,0.9,6.3c0.9,0.3,0.8,0.1,1-0.2c0,0-0.1,7,2.7,8.3c0,0,0.1,3.5-0.2,3.7
	c-0.3,0.2-1.6,5.8-15.7,9.7c0,0-4.7,2-5.7,10.8c-1,8.8-0.1,13.8,0,14.6c0,0-0.6,7.1-1,7.8s-5.4,4.9-6.8,5.3s-4.9,1.4-5.2,0
	s-6.3-1.9-6.4-1.7c0,0-2.5-0.9-2.9-1.8s-1.3-0.3-1.3-0.3s-1.8,5.3-1,6.7s1.8,5.7,2.5,5.9s1.6,0,1.6,0s0.3,1.1,0.7,1.3s1.3,0,1.3,0
	l0.9-0.3c0,0,0,0.9,0.4,0.9s2.4,0.3,2.6-0.3s1.3-1.3,1.3-1.3l0.9-0.1c0,0-1.8,4.9-0.3,9.1s16.8,16.3,17.3,16.1v0.8h-2.4
	c0,0-1.4,0.3-1.6,1.9s-0.3,2.4-0.7,2.6s-0.8,0.6-0.9,0.9s-0.1,2.6-0.1,2.6s0.2,0.5,0.6,0.4s3.1-2.2,3.1-2.2l5.9,0.2
	c0,0,1.3,1.5,7.4,0.4s12.9-3.4,13.7-3.3 M180.3,161.1c0.8-0.1,7.5,2.1,13.7,3.3s7.4-0.4,7.4-0.4l5.9-0.2c0,0,2.6,2.1,3.1,2.2
	s0.6-0.4,0.6-0.4s-0.1-2.3-0.1-2.6s-0.5-0.8-0.9-0.9s-0.5-0.9-0.7-2.6s-1.6-1.9-1.6-1.9h-2.4v-0.8c0.4,0.1,15.7-11.9,17.3-16.1
	s-0.3-9.1-0.3-9.1l0.9,0.1c0,0,1.2,0.6,1.3,1.3s2.1,0.3,2.6,0.3s0.4-0.9,0.4-0.9l0.9,0.3c0,0,0.8,0.2,1.3,0s0.7-1.3,0.7-1.3
	s0.8,0.2,1.6,0s1.7-4.5,2.5-5.9s-1-6.7-1-6.7s-0.8-0.6-1.3,0.3s-2.9,1.8-2.9,1.8c-0.1-0.3-6.1,0.3-6.4,1.7s-3.8,0.4-5.2,0
	s-6.4-4.6-6.8-5.3s-1-7.8-1-7.8c0.1-0.8,1-5.8,0-14.6c-1-8.8-5.7-10.8-5.7-10.8c-14.1-3.9-15.4-9.5-15.7-9.7
	c-0.3-0.2-0.2-3.7-0.2-3.7c2.8-1.3,2.7-8.3,2.7-8.3c0.3,0.3,0.1,0.6,1,0.2c0.9-0.3,0.6-6,0.9-6.3c0.3-0.3-0.5-0.8-0.5-0.8l-0.5,0.3
	l0.2-0.9c0.8-1,0-6.2,0-6.2c-2.1-6.3-8.3-7.3-10.4-7.5v0 M130.4,123.9c0,0-0.6,0.1-1.4,0c-0.8-0.1-0.7-2.1-0.7-2.1l2.1,1.4V123.9z
	 M164.2,132.9c0,0-0.6,1.8-0.8,1.8s-2.3-0.1-2.5-0.6s-6.4-6.3-6.9-6.2c0,0,2.8-1.9,3.5-2.8c0.2-0.3,0.6-0.5,0.7-1.2
	c0.6-3.5,2.7-13,2.3-14.2l3.7,7.2V132.9z M199.8,134c-0.3,0.5-2.3,0.6-2.5,0.6s-0.8-1.8-0.8-1.8v-15.9l3.7-7.2
	c-0.4,1.4,2,13.5,2.1,14.1c0.1,0.6,0.6,1.2,0.9,1.4c0.5,0.4,3.5,2.9,3.5,2.9C206.1,128.1,200,133.5,199.8,134z M231.7,123.9
	c-0.8,0.1-1.4,0-1.4,0v-0.8l2.1-1.3C232.3,121.8,232.5,123.8,231.7,123.9z"/>
</svg>
