<?xml version="1.0" encoding="utf-8"?>
<!-- Generator: Adobe Illustrator 19.0.0, SVG Export Plug-In . SVG Version: 6.00 Build 0)  -->
<svg version="1.1" xmlns="http://www.w3.org/2000/svg" xmlns:xlink="http://www.w3.org/1999/xlink" x="0px" y="0px"
	 viewBox="0 0 2539 450" style="enable-background:new 0 0 2539 450;" xml:space="preserve">
<style type="text/css">
	.st0{fill:#FFFFFF;}
	.st1{opacity:0.6;fill:#0E5F88;stroke:#1E0038;stroke-width:5;stroke-miterlimit:10;}
	.st2{fill:#231F20;}
	.st3{fill:#0F5F6A;}
</style>
<g id="Logo">
	<g id="XMLID_1_">
		<path id="XMLID_13_" class="st0" d="M467.3,207.2c0,0-10.4-2.4-26.3-3.9c-4.5-68.2-40.1-129.6-40.1-129.6s-38.8,9-80.5,31.7
			c-29.2-37.4-61.2-61.1-61.2-61.1s-32,23.6-61.2,61c-41.7-22.7-80.5-31.6-80.5-31.6s-35.6,61.4-40.1,129.6
			c-16,1.5-26.3,3.9-26.3,3.9s-8.6,110,48.9,163.4c57.5,53.4,159.3,30,159.3,30s0.1,0,0.1-0.1c0,0,0,0.1,0,0.1s101.8,23.4,159.3-30
			C475.9,317.2,467.3,207.2,467.3,207.2z"/>
		<g id="XMLID_2_">
			<path id="XMLID_12_" class="st1" d="M150.9,222.4c0,98.4,108.2,178.1,108.2,178.1s108.2-79.8,108.2-178.1S259.1,44.3,259.1,44.3
				S150.9,124.1,150.9,222.4z"/>
			<path id="XMLID_11_" class="st1" d="M429.3,280.2c-39.1,90.3-170.1,120.4-170.1,120.4s-67.5-116.2-28.4-206.5
				c39.1-90.3,170.1-120.4,170.1-120.4S468.4,189.9,429.3,280.2z"/>
			<path id="XMLID_7_" class="st1" d="M89,280.2c39.1,90.3,170.1,120.4,170.1,120.4s67.5-116.2,28.4-206.5
				C248.4,103.9,117.4,73.7,117.4,73.7S49.9,189.9,89,280.2z"/>
			<path id="XMLID_6_" class="st1" d="M418.4,370.6c-57.5,53.4-159.3,30-159.3,30s-8.6-110,48.9-163.4c57.5-53.4,159.3-30,159.3-30
				S475.9,317.2,418.4,370.6z"/>
			<path id="XMLID_3_" class="st1" d="M99.8,370.6c57.5,53.4,159.3,30,159.3,30s8.6-110-48.9-163.4c-57.5-53.4-159.3-30-159.3-30
				S42.3,317.2,99.8,370.6z"/>
		</g>
	</g>
</g>
<g id="Nom">
	<g id="XMLID_84_">
		<path id="XMLID_85_" class="st2" d="M723,251.8c3.3-3.8,6.9-7.3,10.8-10.5c3.8-3.2,8.4-4.9,13.8-5.3c3-0.2,5.3,0.5,7,2
			c1.7,1.5,2.6,3.1,2.9,4.8c0.3,1.7-0.3,3-1.6,4c-1.3,1-3.5,1-6.5,0c-6.3-2.3-11.7-1.9-16.1,1.3c-4.4,3.2-8,7.4-10.6,12.8
			c-1.7,3.5-3.2,7.4-4.5,11.8c-1.3,4.3-2.5,8.8-3.6,13.4c-1.1,4.6-2.1,9.1-3.1,13.5c-1,4.4-2,8.5-3,12.1c-1.5,5.2-3.5,8.8-5.9,10.9
			c-2.4,2.1-4.5,2.9-6.4,2.4c-1.8-0.5-3-2.1-3.6-4.8c-0.6-2.7,0-6.3,1.9-10.8c1.7-3.8,3.5-8.6,5.5-14.3c2-5.7,3.9-11.5,5.8-17.6
			c1.8-6.1,3.5-12,4.9-17.9c1.4-5.8,2.4-10.9,2.9-15.3c0.5-4.7,1.7-7,3.5-7c1.8,0,3.4,1.3,4.8,4C723.2,244.8,723.7,248.3,723,251.8z
			"/>
		<path id="XMLID_87_" class="st2" d="M788,311.6c1.5-0.3,2.3,0.1,2.4,1.3c0.1,1.2-0.7,2.3-2.4,3.3c-5.7,2.7-11.7,4-18.1,3.9
			c-6.4-0.1-11.5-2-15.1-5.9c-2-2-3.3-4.6-3.8-7.8c-0.5-3.2-0.6-6.4-0.4-9.8c0.3-3.3,0.8-6.5,1.6-9.6c0.8-3.1,1.7-5.7,2.5-7.9
			c-1.7-0.3-3-0.6-4-0.8c-1-0.2-2.4-0.6-4.3-1.3c-1.5-0.5-2.4-1.1-2.8-1.8c-0.3-0.7-0.3-1.3,0.1-2c0.4-0.7,1.1-1.2,2.1-1.6
			c1-0.4,2.1-0.5,3.3-0.4c1.2,0,2.5,0.4,3.9,1.1c1.4,0.8,2.7,1.4,3.9,1.9c1.7-3.7,3.7-7.5,6.1-11.6c2.4-4.1,5.3-8,8.6-11.6
			c3.3-3.8,7.3-7.2,11.8-10c4.5-2.8,9.4-4.3,14.8-4.3c3.2,0,5.8,0.8,7.9,2.4c2.1,1.6,3.5,3.6,4.3,6.1s0.8,5.3,0.3,8.5
			c-0.6,3.2-2,6.3-4.1,9.3c-2.2,3-4.8,5.5-7.9,7.6c-3.1,2.1-6.4,3.8-9.9,5.1c-3.5,1.3-7.1,2.3-10.9,3c-3.8,0.7-7.4,1.1-10.9,1.3
			c-0.7,1.2-1.5,2.8-2.5,4.9c-1,2.1-2,4.3-2.9,6.8c-0.9,2.4-1.7,4.9-2.4,7.5c-0.7,2.6-0.8,5-0.5,7.1c0.5,3.8,1.9,6.3,4.1,7.5
			c2.3,1.2,4.9,1.7,7.9,1.6c3-0.1,6.1-0.6,9.3-1.6C783.1,312.8,785.8,312.1,788,311.6z M802.2,244.1c-2.8-1.5-6-1-9.5,1.5
			s-6.9,5.7-10.1,9.6c-3.3,3.9-6.1,8-8.6,12.1c-2.5,4.2-4.1,7.3-4.8,9.3c7.2,0,13.5-1.4,18.9-4.1c5.4-2.8,9.7-6,12.9-9.6
			c3.2-3.7,4.9-7.3,5.3-10.9C806.6,248.3,805.2,245.7,802.2,244.1z M841,213.6c0,0.8-0.9,1.9-2.6,3.3c-1.8,1.3-4,2.8-6.6,4.4
			c-2.7,1.6-5.6,3.1-8.8,4.6c-3.2,1.5-6.1,2.9-8.9,4.1s-5.1,2.3-7.1,3.1c-2,0.8-3.1,1.3-3.3,1.3c-1.3,0-2-0.5-2-1.5
			c0-0.7,1.3-2.3,3.9-4.8c2.6-2.5,5.6-5.2,9.1-8c3.5-2.8,6.9-5.4,10.3-7.6c3.3-2.3,5.8-3.4,7.3-3.4c1.2,0,2.9,0.4,5.3,1.1
			C839.8,210.9,841,212.1,841,213.6z"/>
		<path id="XMLID_91_" class="st2" d="M912.2,164.6c1.8-2.7,3.5-4.4,4.9-5.1c1.4-0.8,2.5-0.7,3.3,0.1c0.8,0.8,1.2,2.3,1.3,4.3
			c0.1,2-0.4,4.3-1.4,7c-1.5,4.3-3.8,10.1-6.8,17.4s-6.3,15-9.8,23.4c-3.5,8.3-7,16.8-10.6,25.4c-3.6,8.6-6.7,16.3-9.4,23.1
			c-1.3,3.7-3,8.3-5,13.8s-4.1,11.1-6.3,16.9c-2.2,5.8-4.4,11.3-6.6,16.5s-4.4,9.5-6.4,12.6c-2.2,3.5-3.9,5.2-5.1,5.1
			c-1.3-0.1-2.1-1-2.5-2.9c-0.4-1.8-0.5-4.2-0.1-7.1c0.3-2.9,1.1-5.5,2.3-7.6c1.7-3,3.5-6.4,5.4-10.3c1.9-3.8,3.7-8.2,5.4-13
			c2.8-8.3,4.4-15.3,4.8-20.9c0.3-5.6-0.2-9.9-1.6-13c-1.4-3.1-3.6-5-6.5-5.9c-2.9-0.8-6.2-0.7-9.8,0.5c-3.6,1.2-7.3,3.3-11,6.3
			c-3.8,3-7.2,6.8-10.4,11.5c-6.2,9-10.3,16.8-12.5,23.5c-2.2,6.7-2.8,12.5-2,17.5c0.5,3,1.7,5.8,3.5,8.3c1.8,2.5,4.1,4.2,6.8,5
			c1.5,0.5,3,0.6,4.4,0.4c1.4-0.3,2.8-0.6,4.1-1.1c1.3-0.5,2.7-0.9,4-1.3c1.3-0.3,2.8-0.3,4.3,0c2.2,0.7,3.5,1.4,4,2.1
			s0.4,1.5-0.4,2.1c-0.8,0.7-1.9,1.3-3.5,1.9c-1.6,0.6-3.4,1-5.4,1.1c-7.5,0.8-13.8-1.1-18.9-5.8c-5.1-4.7-8-10.8-8.9-18.3
			c-0.8-6-0.4-12.5,1.4-19.4c1.8-6.9,4.4-13.3,7.9-19.3c3.5-5.9,7.7-11,12.5-15.3c4.8-4.3,10.1-6.8,15.8-7.6
			c3.2-0.5,6.3-0.4,9.4,0.3c3.1,0.7,5.9,2,8.4,4s4.5,4.6,6,7.9s2.4,7.3,2.8,12.1c0.8-0.7,2.2-3.2,4-7.6c1.8-4.4,3.9-9.8,6.1-16
			s4.7-13.1,7.4-20.6c2.7-7.5,5.3-14.7,7.8-21.6c2.5-6.9,4.9-13.1,7.3-18.5C908.6,171,910.6,167.1,912.2,164.6z"/>
		<path id="XMLID_93_" class="st2" d="M932.5,311.6c1.5-0.3,2.3,0.1,2.4,1.3c0.1,1.2-0.7,2.3-2.4,3.3c-5.7,2.7-11.7,4-18.1,3.9
			c-6.4-0.1-11.5-2-15.1-5.9c-2-2-3.3-4.6-3.8-7.8c-0.5-3.2-0.6-6.4-0.4-9.8c0.3-3.3,0.8-6.5,1.6-9.6c0.8-3.1,1.7-5.7,2.5-7.9
			c-1.7-0.3-3-0.6-4-0.8c-1-0.2-2.4-0.6-4.3-1.3c-1.5-0.5-2.4-1.1-2.8-1.8c-0.3-0.7-0.3-1.3,0.1-2c0.4-0.7,1.1-1.2,2.1-1.6
			c1-0.4,2.1-0.5,3.3-0.4c1.2,0,2.5,0.4,3.9,1.1c1.4,0.8,2.7,1.4,3.9,1.9c1.7-3.7,3.7-7.5,6.1-11.6c2.4-4.1,5.3-8,8.6-11.6
			c3.3-3.8,7.3-7.2,11.8-10c4.5-2.8,9.4-4.3,14.8-4.3c3.2,0,5.8,0.8,7.9,2.4c2.1,1.6,3.5,3.6,4.3,6.1s0.8,5.3,0.3,8.5
			c-0.6,3.2-2,6.3-4.1,9.3c-2.2,3-4.8,5.5-7.9,7.6c-3.1,2.1-6.4,3.8-9.9,5.1c-3.5,1.3-7.1,2.3-10.9,3c-3.8,0.7-7.4,1.1-10.9,1.3
			c-0.7,1.2-1.5,2.8-2.5,4.9c-1,2.1-2,4.3-2.9,6.8c-0.9,2.4-1.7,4.9-2.4,7.5c-0.7,2.6-0.8,5-0.5,7.1c0.5,3.8,1.9,6.3,4.1,7.5
			c2.3,1.2,4.9,1.7,7.9,1.6c3-0.1,6.1-0.6,9.3-1.6C927.6,312.8,930.3,312.1,932.5,311.6z M946.7,244.1c-2.8-1.5-6-1-9.5,1.5
			s-6.9,5.7-10.1,9.6c-3.3,3.9-6.1,8-8.6,12.1c-2.5,4.2-4.1,7.3-4.8,9.3c7.2,0,13.5-1.4,18.9-4.1c5.4-2.8,9.7-6,12.9-9.6
			c3.2-3.7,4.9-7.3,5.3-10.9C951.1,248.3,949.7,245.7,946.7,244.1z M985.5,213.6c0,0.8-0.9,1.9-2.6,3.3c-1.8,1.3-4,2.8-6.6,4.4
			c-2.7,1.6-5.6,3.1-8.8,4.6c-3.2,1.5-6.1,2.9-8.9,4.1s-5.1,2.3-7.1,3.1c-2,0.8-3.1,1.3-3.3,1.3c-1.3,0-2-0.5-2-1.5
			c0-0.7,1.3-2.3,3.9-4.8c2.6-2.5,5.6-5.2,9.1-8c3.5-2.8,6.9-5.4,10.3-7.6c3.3-2.3,5.8-3.4,7.3-3.4c1.2,0,2.9,0.4,5.3,1.1
			C984.3,210.9,985.5,212.1,985.5,213.6z"/>
		<path id="XMLID_97_" class="st2" d="M984.7,251.8c3.3-3.8,6.9-7.3,10.8-10.5c3.8-3.2,8.4-4.9,13.8-5.3c3-0.2,5.3,0.5,7,2
			c1.7,1.5,2.6,3.1,2.9,4.8c0.3,1.7-0.3,3-1.6,4c-1.3,1-3.5,1-6.5,0c-6.3-2.3-11.7-1.9-16.1,1.3c-4.4,3.2-8,7.4-10.6,12.8
			c-1.7,3.5-3.2,7.4-4.5,11.8c-1.3,4.3-2.5,8.8-3.6,13.4c-1.1,4.6-2.1,9.1-3.1,13.5c-1,4.4-2,8.5-3,12.1c-1.5,5.2-3.5,8.8-5.9,10.9
			c-2.4,2.1-4.5,2.9-6.4,2.4c-1.8-0.5-3-2.1-3.6-4.8c-0.6-2.7,0-6.3,1.9-10.8c1.7-3.8,3.5-8.6,5.5-14.3c2-5.7,3.9-11.5,5.8-17.6
			c1.8-6.1,3.5-12,4.9-17.9c1.4-5.8,2.4-10.9,2.9-15.3c0.5-4.7,1.7-7,3.5-7c1.8,0,3.4,1.3,4.8,4
			C984.9,244.8,985.4,248.3,984.7,251.8z"/>
		<path id="XMLID_99_" class="st2" d="M1019,300.3c-2.2,8.3-2.3,13.8-0.4,16.5c1.9,2.7,6.4,2.1,13.4-1.8c1.8-1,3.1-1.5,3.9-1.5
			s1.1,0.3,1.1,0.9c0,0.6-0.4,1.3-1.1,2.1s-1.6,1.5-2.6,2c-3.3,1.8-6.5,2.9-9.6,3.3c-3.1,0.3-5.8,0-8.3-1.1
			c-2.4-1.1-4.4-2.8-5.9-5.3s-2.3-5.5-2.3-9.1v-0.3c0-4.7,0.8-9.8,2.4-15.5c1.6-5.7,3.6-11.3,6-16.8c2.4-5.5,5.1-10.5,8.1-15.1
			c3-4.6,5.9-8.1,8.8-10.6c5-4.3,8.7-5.9,11-4.6c2.3,1.3,2.7,3.6,1,7.1c-1.8,3.5-4,7.2-6.4,11c-2.4,3.8-4.8,7.8-7.1,11.9
			c-2.3,4.1-4.6,8.4-6.8,12.9C1022.1,290.8,1020.3,295.5,1019,300.3z M1049.7,227.3c2-1,3.7-1.3,5.1-0.8c1.4,0.5,2.4,1.4,3,2.8
			c0.6,1.3,0.7,2.8,0.4,4.5c-0.3,1.7-1.2,3.1-2.5,4.3c-2.2,1.8-4.2,2.6-6,2.3c-1.8-0.3-3.2-1.3-4.1-2.8c-0.9-1.5-1.1-3.3-0.6-5.3
			S1047.1,228.6,1049.7,227.3z"/>
		<path id="XMLID_102_" class="st2" d="M1065,395.8c0.3-2.8,1.6-7,3.8-12.4c2.2-5.4,4.7-11.4,7.6-18c2.9-6.6,6-13.3,9.4-20.3
			c3.3-6.9,6.4-13.4,9.1-19.4s5-11.1,6.8-15.3c1.8-4.2,2.5-6.8,2.4-8c-3.7,5.5-8.1,10-13.3,13.4c-5.2,3.4-10.2,5.3-15,5.8
			c-4.8,0.4-9.1-0.9-12.9-4s-6-8.5-6.9-16.1c-0.5-3.7-0.4-7.7,0.4-12.1c0.8-4.4,1.9-8.8,3.5-13.3c1.6-4.4,3.5-8.7,5.9-12.8
			c2.3-4.1,4.9-7.6,7.8-10.6c1.8-2,4-4,6.5-6s5.2-3.8,8.1-5.3c2.9-1.5,5.9-2.7,9-3.6c3.1-0.9,6.1-1.4,9.1-1.4c3.2,0,5.9,0.6,8.1,1.8
			c2.3,1.2,3.8,2.4,4.6,3.6c0.8,1.3,0.8,2.3,0,3.1c-0.8,0.8-2.7,0.8-5.5,0c-1.8-0.5-3.4-1.1-4.6-1.8c-1.3-0.7-2.5-1.2-3.9-1.6
			c-1.3-0.4-2.9-0.6-4.8-0.6c-1.8,0-4.2,0.5-7,1.5c-3.8,1.3-7.3,4-10.4,8.1c-3.1,4.1-5.8,8.7-8,13.9c-2.3,5.2-4,10.4-5.3,15.6
			s-2,9.6-2.1,13.1c-0.3,5.7,0.4,10.6,2.3,14.9c1.8,4.3,4.5,6.8,8,7.8s7.8-0.4,12.8-4c5-3.6,10.5-10.5,16.5-20.6
			c3.2-5.2,5.7-10.1,7.5-14.8c1.8-4.7,3.3-9,4.5-12.9c1.2-3.9,2.2-7.5,3-10.6c0.8-3.2,1.8-5.8,2.8-8c2-4,3.9-6.5,5.6-7.6
			c1.8-1.1,3.3-1.1,4.5,0c1.3,1.1,2,3,2.3,5.6c0.3,2.7-0.1,5.6-1.1,8.8c-1.2,3.8-2.5,7.7-4.1,11.6c-1.6,3.9-3.4,8.2-5.4,12.8
			c-2,4.6-4.2,9.6-6.6,15c-2.4,5.4-5,11.5-7.6,18.4c-2.7,6.8-5.7,14.5-9.1,23c-3.4,8.5-6.8,16.9-10.3,25.1c-3.4,8.3-6.6,15.9-9.6,23
			c-3,7.1-5.3,12.6-7,16.6c-1.2,2.5-2.5,4.5-3.9,5.9c-1.4,1.4-2.8,2.1-4,2.1s-2.3-0.8-3-2.3S1064.5,399.1,1065,395.8z"/>
		<path id="XMLID_104_" class="st2" d="M1167.2,256.6c-3.2,2.5-6.3,5.9-9.4,10.1c-3.1,4.3-5.7,8.8-7.9,13.5c-2.2,4.8-3.7,9.4-4.6,14
			c-0.9,4.6-0.8,8.5,0.4,11.9c1.3,3.8,3.5,6.3,6.5,7.5c3,1.2,6.3,1.4,9.8,0.8c3.5-0.7,7-2,10.4-4.1c3.4-2.1,6.2-4.6,8.4-7.6
			c3-4,5.8-8.5,8.3-13.5s4.9-10.1,7.1-15.4s4.4-10.3,6.5-15.3c2.1-4.9,4.2-9.2,6.4-12.9c1.5-2.5,3.5-4.6,5.9-6.4
			c2.4-1.8,4.5-2.8,6.4-3.1c1.8-0.3,3.1,0.2,3.9,1.6c0.8,1.4,0.2,4-1.6,7.6c-1.5,3.3-3.8,7.5-6.9,12.4c-3.1,4.9-6.3,10.3-9.6,16.1
			c-3.8,6.8-6.7,13.1-8.6,18.8c-1.9,5.7-3.6,12.2-5.1,19.5c-0.2,0.8-0.5,1.8-0.9,3c-0.4,1.2-0.9,2-1.5,2.6c-0.6,0.6-1.3,0.8-2.3,0.6
			c-0.9-0.2-1.9-1.2-2.9-3c-0.7-1.3-1.2-2.9-1.5-4.6c-0.3-1.8-0.5-3.4-0.5-4.9c-2.7,3.2-6,6-10.1,8.4c-4.1,2.4-8.3,4-12.5,4.6
			c-4.3,0.7-8.3,0.3-12.3-1.3c-3.9-1.5-7-4.5-9.4-9c-1.8-3.7-2.5-8.1-1.9-13.4c0.6-5.3,1.8-10.5,3.6-15.9c1.8-5.3,4-10.3,6.5-15
			c2.5-4.7,4.8-8.3,6.8-10.8c2.5-3,5.5-5.3,8.9-6.9c3.4-1.6,6.2-2.3,8.4-2.1c2.2,0.2,3.2,1.3,3,3.3
			C1174.6,249.8,1172.1,252.7,1167.2,256.6z"/>
		<path id="XMLID_106_" class="st2" d="M1258.5,311.6c1.5-0.3,2.3,0.1,2.4,1.3c0.1,1.2-0.7,2.3-2.4,3.3c-5.7,2.7-11.7,4-18.1,3.9
			c-6.4-0.1-11.5-2-15.1-5.9c-2-2-3.3-4.6-3.8-7.8c-0.5-3.2-0.6-6.4-0.4-9.8c0.3-3.3,0.8-6.5,1.6-9.6c0.8-3.1,1.7-5.7,2.5-7.9
			c-1.7-0.3-3-0.6-4-0.8c-1-0.2-2.4-0.6-4.3-1.3c-1.5-0.5-2.4-1.1-2.8-1.8c-0.3-0.7-0.3-1.3,0.1-2c0.4-0.7,1.1-1.2,2.1-1.6
			c1-0.4,2.1-0.5,3.3-0.4c1.2,0,2.5,0.4,3.9,1.1c1.4,0.8,2.7,1.4,3.9,1.9c1.7-3.7,3.7-7.5,6.1-11.6c2.4-4.1,5.3-8,8.6-11.6
			c3.3-3.8,7.3-7.2,11.8-10c4.5-2.8,9.4-4.3,14.8-4.3c3.2,0,5.8,0.8,7.9,2.4c2.1,1.6,3.5,3.6,4.3,6.1s0.8,5.3,0.3,8.5
			c-0.6,3.2-2,6.3-4.1,9.3c-2.2,3-4.8,5.5-7.9,7.6c-3.1,2.1-6.4,3.8-9.9,5.1c-3.5,1.3-7.1,2.3-10.9,3c-3.8,0.7-7.4,1.1-10.9,1.3
			c-0.7,1.2-1.5,2.8-2.5,4.9c-1,2.1-2,4.3-2.9,6.8c-0.9,2.4-1.7,4.9-2.4,7.5c-0.7,2.6-0.8,5-0.5,7.1c0.5,3.8,1.9,6.3,4.1,7.5
			c2.3,1.2,4.9,1.7,7.9,1.6c3-0.1,6.1-0.6,9.3-1.6C1253.6,312.8,1256.3,312.1,1258.5,311.6z M1272.7,244.1c-2.8-1.5-6-1-9.5,1.5
			s-6.9,5.7-10.1,9.6c-3.3,3.9-6.1,8-8.6,12.1c-2.5,4.2-4.1,7.3-4.8,9.3c7.2,0,13.5-1.4,18.9-4.1c5.4-2.8,9.7-6,12.9-9.6
			c3.2-3.7,4.9-7.3,5.3-10.9C1277.1,248.3,1275.7,245.7,1272.7,244.1z"/>
		<path id="XMLID_109_" class="st2" d="M1363.7,331.4c-10.9,0.4-19.9,0-27.2-1.1c-7.3-1.2-11.7-2.8-13.4-5c0-1.7,0.3-2.9,1-3.5
			c0.6-0.6,1.5-1.1,2.6-1.3c1.1-0.2,2.3-0.2,3.7,0c1.4,0.2,2.8,0.3,4.3,0.3c13.7,0.2,27-0.2,40.2-1.1c13.1-1,26.4-2.7,39.8-5.3
			c20-4.1,37.5-10.8,52.3-20.3c14.8-9.5,27.6-23.5,38.2-42.1c5.8-10,8.7-19.6,9-28.6c0.2-9.1-1.4-17.4-5-25.1
			c-3.5-7.7-8.7-14.5-15.5-20.5c-6.8-6-14.4-11.1-22.7-15.4c-9.2-4.5-18.8-7.8-28.8-9.9c-10-2.1-19.7-2.8-29.1-1.9
			c-2.3,0.2-4.7,0.3-7,0.2c-2.3-0.1-4.4-0.4-6.2-0.8c-1.8-0.4-3.1-1.2-4-2.4c-0.9-1.2-0.9-2.8,0-5c1.1-2.6,3.1-4.5,6.2-5.8
			c3.1-1.3,6.8-2.1,11-2.6c6.6-0.6,13.6-0.2,21,1.4c7.4,1.6,14.6,3.8,21.8,6.7c7.1,2.9,14,6.3,20.5,10.2c6.5,3.9,12.1,7.9,16.8,12
			c5.8,4.9,10.8,10.4,15,16.5c4.3,6.1,7.4,12.6,9.4,19.7c2,7,2.7,14.6,1.9,22.6c-0.8,8-3.3,16.4-7.5,25.1c-6,12.2-13.5,22.8-22.6,32
			c-9.1,9.2-19,17-29.9,23.4c-14.1,8.5-29.4,15-46.1,19.5C1396.7,327.9,1380.2,330.6,1363.7,331.4z M1436.7,251.7
			c-3.6,7.3-7.2,14.1-10.7,20.5c-3.5,6.4-6.9,12.1-10.1,17c-2.1,3.2-3.7,4.9-4.8,5.1c-1.1,0.2-1.7-0.3-1.9-1.6
			c-0.2-1.3-0.1-3.1,0.3-5.4c0.4-2.3,1.2-4.6,2.2-6.7c4.3-10.2,8.5-20.5,12.8-30.7c4.3-10.2,8.3-20.5,12.2-30.7
			c3-7.7,5.8-15.1,8.3-22.2c2.6-7.1,4.8-14.1,6.7-21c1.3-4.7,2.8-7.6,4.6-8.6c1.8-1.1,3.4-0.9,4.8,0.5c1.4,1.4,2.4,3.6,3,6.7
			c0.6,3.1,0.5,6.4-0.3,9.8c-2.3,9-6,19.5-11,31.7C1447.8,228.1,1442.5,240,1436.7,251.7z"/>
		<path id="XMLID_112_" class="st2" d="M1535.9,296.2c3-0.4,4.9,0.4,5.8,2.4c0.9,2,0.9,4.4,0.2,7c-0.8,2.7-2.1,5.2-4.2,7.5
			c-2,2.3-4.4,3.7-7.2,4.2c-4.3,0.6-7-0.1-8.2-2.1c-1.2-2-1.3-4.4-0.5-7c0.9-2.7,2.6-5.2,5.1-7.7
			C1529.5,298.1,1532.5,296.6,1535.9,296.2z"/>
	</g>
	<g id="XMLID_80_">
		<path id="XMLID_81_" class="st3" d="M702.2,186c14.7,0,29.2-0.2,43.7-0.5c14.5-0.4,29.1-0.2,43.7,0.5c14.3,0.7,20,2.5,17.1,5.2
			c-2.9,2.8-11.4,4.5-25.3,5.2c-5.9,0.4-12.8,1.1-20.9,2.2c-8.1,1.1-16.4,2.3-25,3.6c-8.6,1.3-17.1,2.8-25.6,4.4
			c-8.4,1.7-15.8,3-22,4.1c-14.3,24.2-26.7,48.4-37.1,72.6c-10.4,24.2-21.9,48-34.4,71.5c-3.3,6.2-6.9,10.2-10.7,11.8
			c-3.8,1.7-6.7-0.8-8.5-7.4c-1.5-5.1-0.2-12.6,3.9-22.3c4-9.7,9.6-21.1,16.8-34.1c7.1-13,15.6-27.1,25.3-42.3
			c9.7-15.2,19.5-30.7,29.4-46.5c-21.6,5.1-41.6,9.4-60,12.7c-5.5,1.1-10,0.7-13.5-1.1c-3.5-1.8-5.3-4.2-5.5-7.1
			c-0.2-2.9,1.7-6.2,5.8-9.9c4-3.7,10.8-6.6,20.4-8.8c12.5-2.9,24.4-5.5,35.8-7.7c11.4-2.2,22.7-3.8,34.1-5
			c8.4-14.3,16.4-28.8,23.9-43.4c7.5-14.7,14.4-29.9,20.6-45.7c2.6-6.2,4.8-9.6,6.6-10.2c1.8-0.6,2.2,2.8,1.1,10.2
			c-0.4,3.3-2.2,9.2-5.5,17.6c-3.3,8.4-7,17.5-11,27.2c-4,9.7-8.3,18.7-12.6,27S704.8,183.4,702.2,186z M655.5,90.8
			c-4.8,0.7-9.6,0.3-14.6-1.4s-8.9-3.9-11.8-6.6c-2.9-2.8-4.4-5.8-4.4-9.1c0-3.3,2.6-6.2,7.7-8.8c5.9-2.6,14.1-4.7,24.8-6.3
			c10.6-1.6,22-2.8,34.1-3.3c12.1-0.5,24-0.8,35.8-0.8c11.7,0,21.4,0,29.1,0c12.1,0,24.1,0.2,36,0.6c11.9,0.4,23.1,0.8,33.5,1.4
			c10.5,0.5,20.1,1.1,28.9,1.6c8.8,0.5,16.3,1,22.6,1.4c12.8,1.1,20,2.9,21.4,5.5v1.6c-0.7,1.5-3.7,2.8-8.8,4.1
			c-5.1,1.3-12.3,2.1-21.5,2.5c-17.6,0.7-35.3,0.8-53.1,0.3c-17.8-0.5-35.7-0.5-53.6,0.3c-18.3,1.1-36.1,3.6-53.4,7.4
			C691,85.1,673.4,88.3,655.5,90.8z"/>
	</g>
	<g id="XMLID_53_">
		<path id="XMLID_54_" class="st2" d="M1792.2,316.6c-2.8-1.3-4.7-3.6-5.6-6.9c-0.9-3.3-1.3-6.8-1-10.5s0.9-7.5,1.9-11.1
			c1-3.7,2.1-6.5,3.3-8.5c-0.5-0.3-0.9-1.5-1.1-3.5s0.3-4,1.6-6c1.5-2.5,3.8-5.3,6.8-8.5c3-3.2,6.5-6.3,10.5-9.3
			c5.3-4.2,11.3-7.8,18-10.9c6.7-3.1,13.5-4.1,20.5-3.1c5.8,0.8,9.8,3.5,11.8,8s2.5,9.8,1.5,16c-1,6.2-3.3,12.8-6.9,19.8
			c-3.6,7-8,13.3-13.1,19c-3,3.2-6.4,6.2-10.1,9c-3.8,2.8-7.7,5.1-11.8,6.8c-4.1,1.7-8.3,2.6-12.8,2.8
			C1801.2,319.7,1796.7,318.7,1792.2,316.6z M1809.2,266.1c0.3,2.5-0.5,5-2.4,7.6c-1.9,2.6-3.5,4.8-4.9,6.6c-1.3,1.8-3,4.8-4.9,8.8
			c-1.9,4-3.3,8-4.1,12c-0.7,3-0.7,5.8,0,8.4c0.7,2.6,2.6,4.5,5.8,5.6c3.7,1.3,7.4,1.1,11.3-0.8c3.8-1.8,7.5-4.3,11-7.5
			c3.5-3.2,6.7-6.7,9.6-10.5c2.9-3.8,5.2-7.1,6.9-9.8c2.5-4.3,4.7-8.7,6.6-13.1c1.9-4.4,3.3-8.6,4.1-12.5c0.8-3.9,1-7.4,0.6-10.4
			c-0.4-3-1.6-5.2-3.6-6.5c-2.7-1.7-5.8-1.9-9.4-0.6c-3.6,1.3-7.1,3.2-10.6,5.8c-3.5,2.6-6.8,5.5-9.8,8.8S1810.4,263.9,1809.2,266.1
			z"/>
		<path id="XMLID_57_" class="st2" d="M1831,399.1c-1.8,2.8-3.5,4.6-5,5.3c-1.5,0.7-2.7,0.6-3.6-0.3c-0.9-0.8-1.4-2.3-1.5-4.3
			c-0.1-2,0.3-4.3,1.1-6.8c1.5-4.2,3.8-10.2,6.9-18c3.1-7.8,6.5-16.2,10.1-25.1c3.7-8.9,7.3-17.9,11-26.9s6.8-16.9,9.3-23.8
			c1.5-3.7,3.3-8.2,5.3-13.5c2-5.3,4.2-10.8,6.5-16.4c2.3-5.6,4.6-10.9,6.9-15.9s4.4-9.1,6.4-12.3c2-3.3,3.7-5,5.1-5
			c1.4,0,2.4,1,3,2.9c0.6,1.9,0.8,4.3,0.5,7s-1,5.2-2.1,7.4c-1.7,2.8-3.5,6.2-5.5,10c-2,3.8-3.8,8.1-5.5,12.8
			c-4.3,12.2-5.9,21.4-4.8,27.8c1.2,6.3,3.8,10.1,8,11.4c4.2,1.3,9.1,0.3,14.9-2.9c5.8-3.2,11-8.2,15.6-15
			c6.2-8.8,10.4-16.5,12.6-23s3-12.3,2.1-17.3c-0.5-2.8-1.6-5.5-3.4-8s-4-4.2-6.6-5c-1.7-0.5-3.2-0.6-4.5-0.3
			c-1.3,0.3-2.6,0.7-3.9,1.1c-1.3,0.4-2.5,0.8-3.9,1c-1.3,0.3-2.8,0.2-4.3-0.1c-2.2-0.7-3.5-1.4-4-2.1s-0.4-1.5,0.3-2.1
			c0.7-0.7,1.8-1.3,3.4-1.9c1.6-0.6,3.4-1,5.4-1.1c3.7-0.3,7.1,0,10.3,1.1c3.2,1.1,5.9,2.7,8.3,4.9c2.3,2.2,4.3,4.8,5.8,7.9
			c1.5,3.1,2.5,6.5,3,10.1c0.7,6,0.2,12.4-1.5,19.1c-1.7,6.8-4.2,13-7.6,18.9c-3.4,5.8-7.5,10.9-12.4,15.1c-4.8,4.3-10,6.7-15.5,7.4
			c-3.2,0.5-6.3,0.4-9.3-0.3c-3-0.7-5.7-2-8-3.9c-2.3-1.9-4.3-4.5-5.9-7.8c-1.6-3.3-2.5-7.3-2.6-12.1c-0.8,0.7-2.2,3.3-4.1,7.9
			c-1.9,4.6-4.1,10.2-6.5,16.8c-2.4,6.6-5,13.8-7.8,21.5s-5.5,15.2-8.1,22.4c-2.7,7.2-5.2,13.6-7.6,19.3
			C1834.7,392.7,1832.7,396.7,1831,399.1z"/>
		<path id="XMLID_59_" class="st2" d="M2002,210.3c-2.8,3.7-6,7.3-9.5,11c-3.5,3.7-7.3,7.5-11.3,11.5c-0.7,1.7-1.7,4.3-3,7.8
			c-1.3,3.5-2.8,7-4.3,10.6c-1.5,3.6-2.9,6.9-4.1,9.9s-2,4.9-2.4,5.8c2-3.7,4.4-7.4,7.3-11.1c2.8-3.8,6-7.1,9.5-10.1
			s7.3-5.4,11.5-7.1c4.2-1.8,8.6-2.5,13.3-2.4c4.5,0.2,8,1.2,10.6,3.1c2.6,1.9,4.5,4.4,5.6,7.5c1.2,3.1,1.6,6.5,1.3,10.3
			c-0.3,3.8-1.2,7.6-2.5,11.6c-1.3,3.8-3,8-5,12.4c-2,4.4-4.3,8.8-6.8,13.3c-2.5,4.4-5.2,8.7-8,12.8c-2.8,4.1-5.6,7.7-8.3,10.9
			c-1,1.3-2.3,2.4-3.9,3.1c-1.6,0.8-3,1.1-4.4,1c-1.3-0.1-2.4-0.6-3.3-1.5c-0.8-0.9-1-2.5-0.5-4.9c0.3-1.7,1-3,1.9-3.9
			c0.9-0.9,2-1.7,3.4-2.3c1.3-0.6,2.8-1.2,4.4-1.9c1.6-0.7,3.1-1.5,4.6-2.5c2.5-1.7,5.2-4.5,8.1-8.4c2.9-3.9,5.6-8.4,8-13.4
			c2.4-5,4.4-10.1,6-15.3c1.6-5.2,2.3-9.9,2.3-14.3c-0.1-4.3-1.3-7.8-3.6-10.4c-2.3-2.6-6.1-3.7-11.3-3.4c-7,0.3-13.2,2.7-18.5,7
			c-5.3,4.3-10.1,9.4-14.3,15.3c-3.5,5-6.6,9.5-9.4,13.5s-5.2,8.2-7.4,12.5c-0.8,1.8-1.8,4-2.9,6.4c-1.1,2.4-2.2,4.9-3.3,7.5
			c-1.1,2.6-2.1,5.1-3,7.5c-0.9,2.4-1.6,4.5-2.1,6.4c-1,3.3-2.3,5.7-4,7c-1.7,1.3-3.2,1.8-4.6,1.5c-1.4-0.3-2.4-1.5-3-3.6
			c-0.6-2.1-0.3-5,0.9-8.9c1.5-4.8,3.4-9.9,5.8-15.1c2.3-5.3,4.8-10.5,7.3-15.9c2.8-5.8,5.5-11.8,8.1-17.8c2.6-6,5-12.1,7.4-18.3
			c-0.5,0.8-1.3,1.6-2.5,2.3c-1.2,0.7-2.4,1.1-3.6,1.4s-2.4,0.1-3.5-0.4c-1.1-0.5-1.7-1.6-1.9-3.3c0-0.8,0.6-1.7,1.9-2.6
			c1.3-0.9,2.8-2,4.8-3.3c1.9-1.3,3.8-2.8,5.8-4.6c1.9-1.8,3.5-4,4.9-6.5c1.8-5.2,3.9-10.8,6.3-16.9c2.3-6.1,5-12,8-17.8
			s6.5-11.1,10.4-16.1c3.9-5,8.4-9,13.4-12c2-1.2,4-2.2,6-3c2-0.8,3.8-1.1,5.3-0.9s2.5,1.2,3.1,2.8c0.6,1.6,0.5,4.1-0.1,7.6
			c-0.8,4.7-2.8,10.2-6,16.5C2013.6,194.6,2008.6,202,2002,210.3z M1987,220.6c2.2-1.8,4.7-4.5,7.5-7.9c2.8-3.4,5.7-7,8.5-10.9
			c2.8-3.8,5.5-7.7,7.9-11.5c2.4-3.8,4.1-7.2,5.1-10c1-2.7,1.5-4.7,1.4-6c-0.1-1.3-0.5-2-1.4-2.1c-0.8-0.1-1.9,0.3-3.3,1.1
			c-1.3,0.8-2.7,2.1-4,3.8c-2.5,3-4.8,6.3-7,9.8c-2.2,3.5-4.1,7.2-5.9,11c-1.8,3.8-3.3,7.7-4.8,11.6
			C1989.7,213.3,1988.3,217.1,1987,220.6z"/>
		<path id="XMLID_62_" class="st2" d="M2059,251.8c3.3-3.8,6.9-7.3,10.8-10.5c3.8-3.2,8.4-4.9,13.8-5.3c3-0.2,5.3,0.5,7,2
			c1.7,1.5,2.6,3.1,2.9,4.8c0.3,1.7-0.3,3-1.6,4c-1.3,1-3.5,1-6.5,0c-6.3-2.3-11.7-1.9-16.1,1.3c-4.4,3.2-8,7.4-10.6,12.8
			c-1.7,3.5-3.2,7.4-4.5,11.8c-1.3,4.3-2.5,8.8-3.6,13.4c-1.1,4.6-2.1,9.1-3.1,13.5c-1,4.4-2,8.5-3,12.1c-1.5,5.2-3.5,8.8-5.9,10.9
			c-2.4,2.1-4.5,2.9-6.4,2.4c-1.8-0.5-3-2.1-3.6-4.8c-0.6-2.7,0-6.3,1.9-10.8c1.7-3.8,3.5-8.6,5.5-14.3c2-5.7,3.9-11.5,5.8-17.6
			c1.8-6.1,3.5-12,4.9-17.9c1.4-5.8,2.4-10.9,2.9-15.3c0.5-4.7,1.7-7,3.5-7c1.8,0,3.4,1.3,4.8,4
			C2059.1,244.8,2059.6,248.3,2059,251.8z"/>
		<path id="XMLID_64_" class="st2" d="M2084.7,316.6c-2.8-1.3-4.7-3.6-5.6-6.9c-0.9-3.3-1.3-6.8-1-10.5s0.9-7.5,1.9-11.1
			c1-3.7,2.1-6.5,3.3-8.5c-0.5-0.3-0.9-1.5-1.1-3.5s0.3-4,1.6-6c1.5-2.5,3.8-5.3,6.8-8.5c3-3.2,6.5-6.3,10.5-9.3
			c5.3-4.2,11.3-7.8,18-10.9c6.7-3.1,13.5-4.1,20.5-3.1c5.8,0.8,9.8,3.5,11.8,8s2.5,9.8,1.5,16c-1,6.2-3.3,12.8-6.9,19.8
			c-3.6,7-8,13.3-13.1,19c-3,3.2-6.4,6.2-10.1,9c-3.8,2.8-7.7,5.1-11.8,6.8c-4.1,1.7-8.3,2.6-12.8,2.8
			C2093.7,319.7,2089.2,318.7,2084.7,316.6z M2101.7,266.1c0.3,2.5-0.5,5-2.4,7.6c-1.9,2.6-3.5,4.8-4.9,6.6c-1.3,1.8-3,4.8-4.9,8.8
			c-1.9,4-3.3,8-4.1,12c-0.7,3-0.7,5.8,0,8.4c0.7,2.6,2.6,4.5,5.8,5.6c3.7,1.3,7.4,1.1,11.3-0.8c3.8-1.8,7.5-4.3,11-7.5
			c3.5-3.2,6.7-6.7,9.6-10.5c2.9-3.8,5.2-7.1,6.9-9.8c2.5-4.3,4.7-8.7,6.6-13.1c1.9-4.4,3.3-8.6,4.1-12.5c0.8-3.9,1-7.4,0.6-10.4
			c-0.4-3-1.6-5.2-3.6-6.5c-2.7-1.7-5.8-1.9-9.4-0.6c-3.6,1.3-7.1,3.2-10.6,5.8c-3.5,2.6-6.8,5.5-9.8,8.8S2102.9,263.9,2101.7,266.1
			z"/>
		<path id="XMLID_67_" class="st2" d="M2195.5,234.8c-1.8,5.3-4,11.1-6.5,17.4s-5,12.5-7.5,18.8s-4.8,12.2-6.8,17.8
			c-2,5.6-3.3,10.3-4,14.1c-0.8,4.3-1,7.6-0.5,9.8c0.5,2.2,1.5,3.6,2.9,4.4c1.4,0.8,3.3,1,5.5,0.6c2.3-0.3,4.9-1,7.9-2
			c1.8-0.7,3-0.9,3.5-0.8c0.5,0.2,0.6,0.5,0.3,1c-0.3,0.5-1.1,1.1-2.3,1.9c-1.2,0.8-2.4,1.4-3.8,1.9c-4,1.3-7.6,1.8-10.8,1.5
			c-3.2-0.3-5.8-1.4-7.9-3.1c-2.1-1.8-3.6-4-4.5-6.9c-0.9-2.8-1.1-6.2-0.6-10c0.5-4.3,1.6-9,3.3-14c1.7-5,3.5-10,5.6-15
			c2.1-5,4.2-9.8,6.3-14.5c2.1-4.7,3.7-8.9,4.9-12.8c-0.7,0.3-1.4,0.9-2.1,1.8c-0.8,0.8-1.8,1.7-3,2.6c-1.3,0.9-2.8,1.7-4.8,2.4
			c-1.9,0.7-4.3,1.1-7.1,1.3c-1.2,0-2-0.3-2.4-0.9c-0.4-0.6,0-1.2,1.1-1.9c2.8-0.8,5.3-1.8,7.3-2.8s3.9-2.3,5.8-3.8
			c1.8-1.5,3.6-3.4,5.4-5.6s3.8-5,6.1-8.4c4-11,7.9-20.5,11.8-28.6c3.8-8.1,7.8-15,11.8-20.6c3.3-4.7,7.2-8.8,11.5-12.3
			c4.3-3.5,9.4-5.8,15.3-6.8c1.8-0.3,3,0.5,3.5,2.4c0.5,1.9,0.3,4.7-0.8,8.3c-1,3.6-2.7,7.9-5.1,12.9c-2.4,5-5.7,10.5-9.9,16.5
			C2216.1,213.6,2206.3,224.8,2195.5,234.8z M2200.7,222.3c2.5-2.2,5.3-5.1,8.3-8.8c3-3.7,5.9-7.5,8.8-11.6c2.8-4.1,5.5-8.1,8-12
			c2.5-3.9,4.5-7.4,6-10.4c1.3-2.5,2-4.4,2.1-5.6c0.1-1.3-0.2-1.9-0.9-2c-0.7-0.1-1.6,0.3-2.9,1.1c-1.3,0.8-2.5,2.1-3.9,3.8
			c-2.5,2.8-5,6.1-7.4,9.9c-2.4,3.8-4.8,7.7-7,11.9c-2.3,4.2-4.3,8.3-6.3,12.5C2203.7,215.2,2202.1,219,2200.7,222.3z"/>
		<path id="XMLID_70_" class="st2" d="M2206,316.6c-2.8-1.3-4.7-3.6-5.6-6.9c-0.9-3.3-1.3-6.8-1-10.5s0.9-7.5,1.9-11.1
			c1-3.7,2.1-6.5,3.3-8.5c-0.5-0.3-0.9-1.5-1.1-3.5s0.3-4,1.6-6c1.5-2.5,3.8-5.3,6.8-8.5c3-3.2,6.5-6.3,10.5-9.3
			c5.3-4.2,11.3-7.8,18-10.9c6.7-3.1,13.5-4.1,20.5-3.1c5.8,0.8,9.8,3.5,11.8,8s2.5,9.8,1.5,16c-1,6.2-3.3,12.8-6.9,19.8
			c-3.6,7-8,13.3-13.1,19c-3,3.2-6.4,6.2-10.1,9c-3.8,2.8-7.7,5.1-11.8,6.8c-4.1,1.7-8.3,2.6-12.8,2.8
			C2214.9,319.7,2210.5,318.7,2206,316.6z M2223,266.1c0.3,2.5-0.5,5-2.4,7.6c-1.9,2.6-3.5,4.8-4.9,6.6c-1.3,1.8-3,4.8-4.9,8.8
			c-1.9,4-3.3,8-4.1,12c-0.7,3-0.7,5.8,0,8.4c0.7,2.6,2.6,4.5,5.8,5.6c3.7,1.3,7.4,1.1,11.3-0.8c3.8-1.8,7.5-4.3,11-7.5
			c3.5-3.2,6.7-6.7,9.6-10.5c2.9-3.8,5.2-7.1,6.9-9.8c2.5-4.3,4.7-8.7,6.6-13.1c1.9-4.4,3.3-8.6,4.1-12.5c0.8-3.9,1-7.4,0.6-10.4
			c-0.4-3-1.6-5.2-3.6-6.5c-2.7-1.7-5.8-1.9-9.4-0.6c-3.6,1.3-7.1,3.2-10.6,5.8c-3.5,2.6-6.8,5.5-9.8,8.8S2224.1,263.9,2223,266.1z"
			/>
		<path id="XMLID_73_" class="st2" d="M2274.7,314.6c-4-4.3-6-9.3-6-14.8s1.4-11.1,4.1-16.9s6.5-11.2,11.4-16.4
			c4.8-5.2,10.1-9.6,15.8-13.4c5.7-3.8,11.4-6.4,17.3-7.9c5.8-1.5,11.1-1.4,15.8,0.3c0.7,0.3,1.4,0.9,2.3,1.6
			c0.8,0.8,1.4,1.6,1.6,2.5c0.3,0.9,0.2,1.7-0.3,2.4c-0.4,0.7-1.5,1-3.4,1c-1.8,0-3.1-0.2-3.9-0.5c-0.8-0.3-1.3-0.7-1.5-1.1
			c-0.3-0.4-0.4-0.8-0.4-1.3c0-0.4-0.3-0.6-0.8-0.6c-4,0.3-8.3,1.9-12.9,4.6c-4.6,2.8-9,6.2-13.3,10.3c-4.3,4.1-8.2,8.5-11.8,13.4
			c-3.6,4.8-6.5,9.4-8.6,13.8c-3,6.2-4.2,11.1-3.5,14.9c0.7,3.8,2.5,6.4,5.6,7.9c3.1,1.5,7,1.8,11.6,1c4.7-0.8,9.5-2.8,14.5-5.8
			s9.8-7,14.5-12.1c4.7-5.1,8.6-11.3,11.8-18.6c2.2-4.8,3.5-9.7,3.9-14.5c0.4-4.8,1.4-9.5,2.9-14c0.5-1.3,1.1-2.5,1.9-3.4
			c0.8-0.9,2.5-1,5.1-0.1c2.3,0.8,3.6,3.2,3.8,7c0.2,3.8-0.2,8-1.1,12.6c-0.9,4.6-2,9-3.3,13.1c-1.3,4.2-2.1,7.1-2.6,8.8
			c-2.8,9.8-5.9,20.3-9.1,31.3s-7.1,21.8-11.5,32.4c-4.4,10.6-9.5,20.5-15.4,29.9c-5.8,9.3-12.8,17.3-20.8,23.8s-17.1,11.2-27.4,14
			c-10.3,2.8-22,3-35.4,0.5c-1.3-0.2-2.8-0.7-4.3-1.6c-1.5-0.9-2.7-1.9-3.5-2.9c-0.8-1-1.3-2-1.3-2.9c0-0.9,0.8-1.5,2.5-1.9
			c1-0.2,2.3-0.1,3.9,0.3c1.6,0.3,3.1,0.8,4.6,1.5c1.5,0.7,2.9,1.3,4.3,1.9c1.3,0.6,2.3,0.9,2.8,0.9c11.3,1.7,21.4,0.8,30.1-2.8
			s16.5-8.7,23.1-15.5c6.7-6.8,12.4-14.9,17.3-24.1c4.8-9.3,9-18.8,12.6-28.8c3.6-9.9,6.7-19.7,9.3-29.4c2.6-9.7,5-18.3,7.1-26
			c-2.8,5.5-6.8,10.7-11.9,15.6c-5.1,4.9-10.5,8.8-16.4,11.8c-5.8,2.9-11.6,4.4-17.3,4.5C2283.1,320.8,2278.4,318.7,2274.7,314.6z"
			/>
		<path id="XMLID_75_" class="st2" d="M2387.7,256.6c-3.2,2.5-6.3,5.9-9.4,10.1c-3.1,4.3-5.7,8.8-7.9,13.5c-2.2,4.8-3.7,9.4-4.6,14
			c-0.9,4.6-0.8,8.5,0.4,11.9c1.3,3.8,3.5,6.3,6.5,7.5c3,1.2,6.3,1.4,9.8,0.8c3.5-0.7,7-2,10.4-4.1c3.4-2.1,6.2-4.6,8.4-7.6
			c3-4,5.8-8.5,8.3-13.5s4.9-10.1,7.1-15.4s4.4-10.3,6.5-15.3c2.1-4.9,4.2-9.2,6.4-12.9c1.5-2.5,3.5-4.6,5.9-6.4
			c2.4-1.8,4.5-2.8,6.4-3.1c1.8-0.3,3.1,0.2,3.9,1.6c0.8,1.4,0.2,4-1.6,7.6c-1.5,3.3-3.8,7.5-6.9,12.4c-3.1,4.9-6.3,10.3-9.6,16.1
			c-3.8,6.8-6.7,13.1-8.6,18.8c-1.9,5.7-3.6,12.2-5.1,19.5c-0.2,0.8-0.5,1.8-0.9,3c-0.4,1.2-0.9,2-1.5,2.6c-0.6,0.6-1.3,0.8-2.3,0.6
			c-0.9-0.2-1.9-1.2-2.9-3c-0.7-1.3-1.2-2.9-1.5-4.6c-0.3-1.8-0.5-3.4-0.5-4.9c-2.7,3.2-6,6-10.1,8.4c-4.1,2.4-8.3,4-12.5,4.6
			c-4.3,0.7-8.3,0.3-12.3-1.3c-3.9-1.5-7-4.5-9.4-9c-1.8-3.7-2.5-8.1-1.9-13.4c0.6-5.3,1.8-10.5,3.6-15.9c1.8-5.3,4-10.3,6.5-15
			c2.5-4.7,4.8-8.3,6.8-10.8c2.5-3,5.5-5.3,8.9-6.9c3.4-1.6,6.2-2.3,8.4-2.1c2.2,0.2,3.2,1.3,3,3.3
			C2395,249.8,2392.5,252.7,2387.7,256.6z"/>
		<path id="XMLID_77_" class="st2" d="M2479,311.6c1.5-0.3,2.3,0.1,2.4,1.3c0.1,1.2-0.7,2.3-2.4,3.3c-5.7,2.7-11.7,4-18.1,3.9
			c-6.4-0.1-11.5-2-15.1-5.9c-2-2-3.3-4.6-3.8-7.8c-0.5-3.2-0.6-6.4-0.4-9.8c0.3-3.3,0.8-6.5,1.6-9.6c0.8-3.1,1.7-5.7,2.5-7.9
			c-1.7-0.3-3-0.6-4-0.8c-1-0.2-2.4-0.6-4.3-1.3c-1.5-0.5-2.4-1.1-2.8-1.8c-0.3-0.7-0.3-1.3,0.1-2c0.4-0.7,1.1-1.2,2.1-1.6
			c1-0.4,2.1-0.5,3.3-0.4c1.2,0,2.5,0.4,3.9,1.1c1.4,0.8,2.7,1.4,3.9,1.9c1.7-3.7,3.7-7.5,6.1-11.6c2.4-4.1,5.3-8,8.6-11.6
			c3.3-3.8,7.3-7.2,11.8-10c4.5-2.8,9.4-4.3,14.8-4.3c3.2,0,5.8,0.8,7.9,2.4c2.1,1.6,3.5,3.6,4.3,6.1s0.8,5.3,0.3,8.5
			c-0.6,3.2-2,6.3-4.1,9.3c-2.2,3-4.8,5.5-7.9,7.6c-3.1,2.1-6.4,3.8-9.9,5.1c-3.5,1.3-7.1,2.3-10.9,3c-3.8,0.7-7.4,1.1-10.9,1.3
			c-0.7,1.2-1.5,2.8-2.5,4.9c-1,2.1-2,4.3-2.9,6.8c-0.9,2.4-1.7,4.9-2.4,7.5c-0.7,2.6-0.8,5-0.5,7.1c0.5,3.8,1.9,6.3,4.1,7.5
			c2.3,1.2,4.9,1.7,7.9,1.6c3-0.1,6.1-0.6,9.3-1.6C2474.1,312.8,2476.8,312.1,2479,311.6z M2493.2,244.1c-2.8-1.5-6-1-9.5,1.5
			s-6.9,5.7-10.1,9.6c-3.3,3.9-6.1,8-8.6,12.1c-2.5,4.2-4.1,7.3-4.8,9.3c7.2,0,13.5-1.4,18.9-4.1c5.4-2.8,9.7-6,12.9-9.6
			c3.2-3.7,4.9-7.3,5.3-10.9C2497.5,248.3,2496.2,245.7,2493.2,244.1z"/>
	</g>
	<g id="XMLID_50_">
		<path id="XMLID_51_" class="st3" d="M1862.7,45.9c7.3,2.2,11.5,7.6,12.7,16.2c1.1,8.6,0.2,18-2.8,28.1
			c-2.9,10.1-7.4,19.9-13.5,29.4c-6,9.5-12.7,16.5-20.1,20.9c-8.4,5.1-13.6,7.1-15.4,6.1c-1.8-1.1-2.1-3.4-0.8-6.9
			c1.3-3.5,3.6-7.6,6.9-12.4c3.3-4.8,6-8.4,8.3-11c12.5-15,20-28,22.5-38.8c2.6-10.8,1.9-18.4-1.9-22.8s-9.8-5-17.9-1.9
			c-8.1,3.1-16.3,10.9-24.8,23.4c-7.3,10.6-14.1,23.9-20.3,39.9c-6.2,16-11.9,32.7-17.1,50.3c-2.2,7.3-4.4,17.9-6.6,31.6
			s-4.9,29-8,45.6c-3.1,16.7-6.6,34-10.5,52c-3.9,18-8.4,34.7-13.8,50.1c-5.3,15.4-11.5,28.7-18.4,39.9c-7,11.2-14.9,18.6-23.7,22.3
			c-13.6,5.5-24.7,6.7-33.3,3.6c-8.6-3.1-15.3-8.8-20.1-17.1c-4.8-8.3-8.1-18.1-9.9-29.7c-1.8-11.6-2.8-23.2-2.8-34.9
			c0-11.7,0.6-22.6,1.9-32.7c1.3-10.1,2.5-17.7,3.6-22.8c2.6-11,5.3-17.4,8.3-19.3c2.9-1.8,5.3-1.5,7.2,1.1c1.8,2.6,2.8,6.2,3,11
			c0.2,4.8-1.2,8.4-4.1,11c-4.8,4.4-7.7,12.1-8.8,23.1c-1.1,7-1.8,16-2.2,27c-0.4,11,0.3,21.9,1.9,32.7c1.7,10.8,4.8,20.4,9.4,28.9
			c4.6,8.4,11.3,13.2,20.1,14.3c7,0.7,13.8-2.5,20.3-9.6c6.6-7.1,12.5-19.7,17.6-37.7c5.1-18.7,9.6-37.6,13.5-56.7
			c3.8-19.1,7.8-37.9,11.8-56.7c4-18.7,8.7-37.4,14-56.1c5.3-18.7,11.8-37.2,19.5-55.6c4-9.5,8.5-18.7,13.5-27.5
			c5-8.8,10-16.9,15.1-24.2c3.3-4.4,7.4-9,12.4-13.8c5-4.8,10.4-8.9,16.2-12.4c5.9-3.5,12-6.1,18.4-8
			C1850.7,44.1,1856.9,44.1,1862.7,45.9z"/>
	</g>
</g>
</svg>
