<?xml version="1.0" encoding="utf-8"?>
<!-- Generator: Adobe Illustrator 19.0.0, SVG Export Plug-In . SVG Version: 6.00 Build 0)  -->
<svg version="1.1" id="Calque_2" xmlns="http://www.w3.org/2000/svg" xmlns:xlink="http://www.w3.org/1999/xlink" x="0px" y="0px"
	 viewBox="0 0 160 143" style="enable-background:new 0 0 160 143;" xml:space="preserve">
<style type="text/css">
	.st0{fill:#FFFFFF;}
	.st1{opacity:0.6;fill:#0E5F88;stroke:#1E0038;stroke-width:5;stroke-miterlimit:10;}
</style>
<g id="XMLID_2_">
	<path id="XMLID_13_" class="st0" d="M144.7,66.3c0,0-3.2-0.7-8.2-1.2c-1.4-21.2-12.5-40.3-12.5-40.3s-12.1,2.8-25,9.8
		c-9.1-11.6-19-19-19-19s-10,7.4-19,19c-13-7.1-25-9.8-25-9.8S24.9,43.9,23.5,65.1c-5,0.5-8.2,1.2-8.2,1.2s-2.7,34.2,15.2,50.8
		c17.9,16.6,49.5,9.3,49.5,9.3s0,0,0,0c0,0,0,0,0,0s31.6,7.3,49.5-9.3C147.4,100.5,144.7,66.3,144.7,66.3z"/>
	<g id="XMLID_3_">
		<path id="XMLID_12_" class="st1" d="M46.4,71c0,30.6,33.6,55.4,33.6,55.4s33.6-24.8,33.6-55.4S80,15.6,80,15.6S46.4,40.4,46.4,71z
			"/>
		<path id="XMLID_11_" class="st1" d="M132.9,88.9C120.7,117,80,126.4,80,126.4s-21-36.1-8.8-64.2s52.9-37.4,52.9-37.4
			S145.1,60.9,132.9,88.9z"/>
		<path id="XMLID_7_" class="st1" d="M27.1,88.9C39.3,117,80,126.4,80,126.4s21-36.1,8.8-64.2S35.9,24.8,35.9,24.8
			S14.9,60.9,27.1,88.9z"/>
		<path id="XMLID_6_" class="st1" d="M129.5,117.1c-17.9,16.6-49.5,9.3-49.5,9.3s-2.7-34.2,15.2-50.8s49.5-9.3,49.5-9.3
			S147.4,100.5,129.5,117.1z"/>
		<path id="XMLID_1_" class="st1" d="M30.5,117.1c17.9,16.6,49.5,9.3,49.5,9.3s2.7-34.2-15.2-50.8s-49.5-9.3-49.5-9.3
			S12.6,100.5,30.5,117.1z"/>
	</g>
</g>
</svg>
